<svg xmlns="http://www.w3.org/2000/svg" xmlns:xlink="http://www.w3.org/1999/xlink" width="1920" zoomAndPan="magnify" viewBox="0 0 1440 809.999993" height="1080" preserveAspectRatio="xMidYMid meet" version="1.0"><defs><clipPath id="19a581fe54"><path d="M 92 428.140625 L 133 428.140625 L 133 502 L 92 502 Z M 92 428.140625 " clip-rule="nonzero"/></clipPath><clipPath id="c9cea017c9"><path d="M 92.113281 428.523438 L 132.710938 455.25 L 132.710938 501.421875 L 92.113281 474.742188 Z M 92.113281 428.523438 " clip-rule="nonzero"/></clipPath><clipPath id="35f52ece14"><path d="M 56 396 L 82 396 L 82 443 L 56 443 Z M 56 396 " clip-rule="nonzero"/></clipPath><clipPath id="9c96b81728"><path d="M 56.066406 396.648438 L 81.558594 413.417969 L 81.558594 442.398438 L 56.066406 425.628906 Z M 56.066406 396.648438 " clip-rule="nonzero"/></clipPath><clipPath id="3c22b3f67c"><path d="M 143.214844 496 L 161 496 L 161 532 L 143.214844 532 Z M 143.214844 496 " clip-rule="nonzero"/></clipPath><clipPath id="f504068637"><path d="M 143.308594 496.273438 L 160.542969 509.296875 L 160.542969 531.851562 L 143.308594 518.785156 Z M 143.308594 496.273438 " clip-rule="nonzero"/></clipPath><clipPath id="ed237c0e0f"><path d="M 112.082031 381 L 201 381 L 201 521 L 112.082031 521 Z M 112.082031 381 " clip-rule="nonzero"/></clipPath><clipPath id="d47d75bdad"><path d="M 150.203125 451.84375 L 171.820312 466.058594 L 171.820312 443.71875 L 150.203125 429.503906 Z M 200.375 438.824219 L 200.375 520.828125 L 143.351562 483.335938 L 143.351562 449.035156 L 112.410156 428.695312 L 112.410156 381.03125 Z M 200.375 438.824219 " clip-rule="nonzero"/></clipPath><clipPath id="2ff271deb9"><path d="M 200.109375 381 L 289 381 L 289 521 L 200.109375 521 Z M 200.109375 381 " clip-rule="nonzero"/></clipPath><clipPath id="e16bfd0472"><path d="M 288.339844 381.03125 L 200.375 438.867188 L 200.375 520.828125 L 288.339844 463.039062 Z M 288.339844 381.03125 " clip-rule="nonzero"/></clipPath><clipPath id="130f0b8507"><path d="M 200.109375 278 L 289 278 L 289 381.859375 L 200.109375 381.859375 Z M 200.109375 278 " clip-rule="nonzero"/></clipPath><clipPath id="eef9ccd03c"><path d="M 200.375 374.859375 L 200.375 381.160156 L 288.339844 371.371094 L 288.339844 285.238281 L 270.507812 303.109375 L 277.359375 309.960938 L 244.421875 342.902344 L 210.207031 308.683594 L 220.589844 298.300781 L 200.375 278.171875 Z M 200.375 374.859375 " clip-rule="nonzero"/></clipPath><clipPath id="3591361f11"><path d="M 112.082031 278 L 201 278 L 201 381.859375 L 112.082031 381.859375 Z M 112.082031 278 " clip-rule="nonzero"/></clipPath><clipPath id="f6330201b8"><path d="M 200.375 374.859375 L 200.375 381.160156 L 112.410156 371.371094 L 112.410156 285.238281 L 130.242188 303.109375 L 123.390625 309.960938 L 156.328125 342.902344 L 190.546875 308.683594 L 180.160156 298.300781 L 200.375 278.171875 Z M 200.375 374.859375 " clip-rule="nonzero"/></clipPath><clipPath id="94234aa6ed"><path d="M 343.214844 332.082031 L 432 332.082031 L 432 473.84375 L 343.214844 473.84375 Z M 343.214844 332.082031 " clip-rule="nonzero"/></clipPath><clipPath id="0a71d88d54"><path d="M 430.835938 473.332031 L 350.0625 473.332031 L 343.339844 458.949219 L 408.75 458.949219 L 408.75 407.539062 L 347.894531 407.539062 L 347.894531 332.769531 L 431.21875 332.769531 L 431.21875 347.152344 L 369.980469 347.152344 L 369.980469 393.15625 L 430.835938 393.15625 Z M 430.835938 473.332031 " clip-rule="nonzero"/></clipPath><clipPath id="bb6bbe6d34"><path d="M 529.949219 332.597656 L 552.078125 332.597656 L 552.078125 458.949219 L 529.949219 458.949219 Z M 465.476562 332.597656 L 487.605469 332.597656 L 487.605469 458.949219 L 465.476562 458.949219 Z M 465.476562 458.949219 L 552.078125 458.949219 L 552.078125 473.332031 L 465.476562 473.332031 Z M 465.476562 458.949219 " clip-rule="nonzero"/></clipPath><clipPath id="8e3e3c6cb5"><path d="M 800.171875 332.082031 L 882 332.082031 L 882 473.84375 L 800.171875 473.84375 Z M 800.171875 332.082031 " clip-rule="nonzero"/></clipPath><clipPath id="b0618e1104"><path d="M 874.402344 473.332031 L 800.695312 473.332031 L 800.695312 332.597656 L 878.105469 332.597656 L 878.105469 346.980469 L 822.824219 346.980469 L 822.824219 394.347656 L 875.722656 394.347656 L 875.722656 408.730469 L 822.824219 408.730469 L 822.824219 456.183594 L 881.125 456.183594 Z M 874.402344 473.332031 " clip-rule="nonzero"/></clipPath><clipPath id="f5a3adb6f0"><path d="M 1180 332.082031 L 1265.585938 332.082031 L 1265.585938 473.84375 L 1180 473.84375 Z M 1180 332.082031 " clip-rule="nonzero"/></clipPath><clipPath id="b588a70d28"><path d="M 1258.433594 473.332031 L 1180.46875 473.332031 L 1180.46875 332.597656 L 1261.710938 332.597656 L 1261.710938 346.980469 L 1202.558594 346.980469 L 1202.558594 458.949219 L 1265.328125 458.949219 Z M 1258.433594 473.332031 " clip-rule="nonzero"/></clipPath><clipPath id="136e089af8"><path d="M 585 332.082031 L 664 332.082031 L 664 473.84375 L 585 473.84375 Z M 585 332.082031 " clip-rule="nonzero"/></clipPath><clipPath id="01d1cb9c22"><path d="M 608.082031 473.164062 L 585.953125 473.164062 L 585.953125 332.597656 L 663.746094 332.597656 L 663.746094 420.5625 L 615.703125 420.5625 L 621.320312 406.179688 L 641.660156 406.179688 L 641.660156 346.980469 L 608.082031 346.980469 Z M 608.082031 473.164062 " clip-rule="nonzero"/></clipPath><clipPath id="78beb7ee1b"><path d="M 688 332.082031 L 780 332.082031 L 780 473.84375 L 688 473.84375 Z M 688 332.082031 " clip-rule="nonzero"/></clipPath><clipPath id="ad24964618"><path d="M 779.460938 473.332031 L 753.371094 473.332031 L 728.007812 416.988281 L 718.816406 416.988281 L 724.5625 402.601562 L 744.09375 402.601562 L 744.09375 346.980469 L 710.902344 346.980469 L 710.902344 473.332031 L 688.8125 473.332031 L 688.8125 332.597656 L 766.222656 332.597656 L 766.222656 416.988281 L 754.136719 416.988281 Z M 779.460938 473.332031 " clip-rule="nonzero"/></clipPath><clipPath id="5650f383da"><path d="M 1339 332.082031 L 1384 332.082031 L 1384 408.691406 L 1339 408.691406 Z M 1339 332.082031 " clip-rule="nonzero"/></clipPath><clipPath id="0bab4e54cd"><path d="M 1351.761719 408.007812 L 1339.207031 378.6875 L 1358.613281 332.597656 L 1383.933594 332.597656 Z M 1351.761719 408.007812 " clip-rule="nonzero"/></clipPath><clipPath id="f871d56a81"><path d="M 1283 332.082031 L 1345 332.082031 L 1345 473.84375 L 1283 473.84375 Z M 1283 332.082031 " clip-rule="nonzero"/></clipPath><clipPath id="208a8fad5a"><path d="M 1344.566406 473.332031 L 1322.480469 473.332031 L 1322.480469 424.09375 L 1283.03125 332.597656 L 1308.351562 332.597656 L 1344.527344 417.371094 Z M 1344.566406 473.332031 " clip-rule="nonzero"/></clipPath><clipPath id="ee6e796247"><path d="M 1050 332.082031 L 1157 332.082031 L 1157 473.84375 L 1050 473.84375 Z M 1050 332.082031 " clip-rule="nonzero"/></clipPath><clipPath id="bd63824e96"><path d="M 1156.171875 473.332031 L 1132.125 473.332031 L 1131.914062 472.394531 L 1106.292969 352.726562 L 1100.292969 352.726562 L 1086.164062 421.457031 L 1109.273438 421.457031 L 1112.167969 435.839844 L 1081.992188 435.839844 L 1074.503906 473.332031 L 1050.417969 473.332031 L 1080.417969 332.769531 L 1126.082031 332.769531 L 1126.550781 334.894531 Z M 1156.171875 473.332031 " clip-rule="nonzero"/></clipPath><clipPath id="895d11986e"><path d="M 909 332.082031 L 1025 332.082031 L 1025 473.84375 L 909 473.84375 Z M 909 332.082031 " clip-rule="nonzero"/></clipPath><clipPath id="1f9abb92ae"><path d="M 1015.011719 332.769531 L 995.304688 332.769531 L 967.175781 436.179688 L 939.046875 332.769531 L 909.46875 332.769531 L 909.46875 473.332031 L 929.171875 473.332031 L 929.171875 369.707031 L 957.304688 473.332031 L 977.007812 473.332031 L 1005.136719 369.707031 L 1005.136719 473.332031 L 1024.882812 473.332031 L 1024.882812 332.769531 Z M 1015.011719 332.769531 " clip-rule="nonzero"/></clipPath></defs><g clip-path="url(#19a581fe54)"><g clip-path="url(#c9cea017c9)"><path fill="#ffbc0c" d="M 34.789062 256.894531 L 309.609375 256.894531 L 309.609375 553.105469 L 34.789062 553.105469 Z M 34.789062 256.894531 " fill-opacity="1" fill-rule="nonzero"/></g></g><g clip-path="url(#35f52ece14)"><g clip-path="url(#9c96b81728)"><path fill="#e28600" d="M 34.789062 256.894531 L 309.609375 256.894531 L 309.609375 553.105469 L 34.789062 553.105469 Z M 34.789062 256.894531 " fill-opacity="1" fill-rule="nonzero"/></g></g><g clip-path="url(#3c22b3f67c)"><g clip-path="url(#f504068637)"><path fill="#e28600" d="M 34.789062 256.894531 L 309.609375 256.894531 L 309.609375 553.105469 L 34.789062 553.105469 Z M 34.789062 256.894531 " fill-opacity="1" fill-rule="nonzero"/></g></g><g clip-path="url(#ed237c0e0f)"><g clip-path="url(#d47d75bdad)"><path fill="#ffbc0c" d="M 34.789062 256.894531 L 309.609375 256.894531 L 309.609375 553.105469 L 34.789062 553.105469 Z M 34.789062 256.894531 " fill-opacity="1" fill-rule="nonzero"/></g></g><g clip-path="url(#2ff271deb9)"><g clip-path="url(#e16bfd0472)"><path fill="#e28600" d="M 34.789062 256.894531 L 309.609375 256.894531 L 309.609375 553.105469 L 34.789062 553.105469 Z M 34.789062 256.894531 " fill-opacity="1" fill-rule="nonzero"/></g></g><g clip-path="url(#130f0b8507)"><g clip-path="url(#eef9ccd03c)"><path fill="#e28600" d="M 34.789062 256.894531 L 309.609375 256.894531 L 309.609375 553.105469 L 34.789062 553.105469 Z M 34.789062 256.894531 " fill-opacity="1" fill-rule="nonzero"/></g></g><g clip-path="url(#3591361f11)"><g clip-path="url(#f6330201b8)"><path fill="#ffbc0c" d="M 34.789062 256.894531 L 309.609375 256.894531 L 309.609375 553.105469 L 34.789062 553.105469 Z M 34.789062 256.894531 " fill-opacity="1" fill-rule="nonzero"/></g></g><g clip-path="url(#94234aa6ed)"><g clip-path="url(#0a71d88d54)"><path fill="#ffbc0c" d="M 322.0625 311.320312 L 1405.210938 311.320312 L 1405.210938 494.605469 L 322.0625 494.605469 Z M 322.0625 311.320312 " fill-opacity="1" fill-rule="nonzero"/></g></g><g clip-path="url(#bb6bbe6d34)"><path fill="#ffbc0c" d="M 322.0625 311.320312 L 1405.210938 311.320312 L 1405.210938 494.605469 L 322.0625 494.605469 Z M 322.0625 311.320312 " fill-opacity="1" fill-rule="nonzero"/></g><g clip-path="url(#8e3e3c6cb5)"><g clip-path="url(#b0618e1104)"><path fill="#ffbc0c" d="M 322.0625 311.320312 L 1405.210938 311.320312 L 1405.210938 494.605469 L 322.0625 494.605469 Z M 322.0625 311.320312 " fill-opacity="1" fill-rule="nonzero"/></g></g><g clip-path="url(#f5a3adb6f0)"><g clip-path="url(#b588a70d28)"><path fill="#ffbc0c" d="M 322.0625 311.320312 L 1405.210938 311.320312 L 1405.210938 494.605469 L 322.0625 494.605469 Z M 322.0625 311.320312 " fill-opacity="1" fill-rule="nonzero"/></g></g><g clip-path="url(#136e089af8)"><g clip-path="url(#01d1cb9c22)"><path fill="#ffbc0c" d="M 322.0625 311.320312 L 1405.210938 311.320312 L 1405.210938 494.605469 L 322.0625 494.605469 Z M 322.0625 311.320312 " fill-opacity="1" fill-rule="nonzero"/></g></g><g clip-path="url(#78beb7ee1b)"><g clip-path="url(#ad24964618)"><path fill="#ffbc0c" d="M 322.0625 311.320312 L 1405.210938 311.320312 L 1405.210938 494.605469 L 322.0625 494.605469 Z M 322.0625 311.320312 " fill-opacity="1" fill-rule="nonzero"/></g></g><g clip-path="url(#5650f383da)"><g clip-path="url(#0bab4e54cd)"><path fill="#ffbc0c" d="M 322.0625 311.320312 L 1405.210938 311.320312 L 1405.210938 494.605469 L 322.0625 494.605469 Z M 322.0625 311.320312 " fill-opacity="1" fill-rule="nonzero"/></g></g><g clip-path="url(#f871d56a81)"><g clip-path="url(#208a8fad5a)"><path fill="#ffbc0c" d="M 322.0625 311.320312 L 1405.210938 311.320312 L 1405.210938 494.605469 L 322.0625 494.605469 Z M 322.0625 311.320312 " fill-opacity="1" fill-rule="nonzero"/></g></g><g clip-path="url(#ee6e796247)"><g clip-path="url(#bd63824e96)"><path fill="#ffbc0c" d="M 322.0625 311.320312 L 1405.210938 311.320312 L 1405.210938 494.605469 L 322.0625 494.605469 Z M 322.0625 311.320312 " fill-opacity="1" fill-rule="nonzero"/></g></g><g clip-path="url(#895d11986e)"><g clip-path="url(#1f9abb92ae)"><path fill="#ffbc0c" d="M 322.0625 311.320312 L 1405.210938 311.320312 L 1405.210938 494.605469 L 322.0625 494.605469 Z M 322.0625 311.320312 " fill-opacity="1" fill-rule="nonzero"/></g></g></svg>